<svg width="20" height="17" viewBox="0 0 20 17" fill="none" xmlns="http://www.w3.org/2000/svg">
<path d="M20 8.33352C20 8.55453 19.9122 8.76649 19.7559 8.92276C19.5997 9.07904 19.3877 9.16683 19.1667 9.16683H2.84535L8.92328 15.2437C9.0007 15.3211 9.06212 15.4131 9.10402 15.5142C9.14592 15.6154 9.16749 15.7238 9.16749 15.8333C9.16749 15.9428 9.14592 16.0512 9.10402 16.1523C9.06212 16.2535 9.0007 16.3454 8.92328 16.4228C8.84586 16.5003 8.75394 16.5617 8.65279 16.6036C8.55163 16.6455 8.44321 16.667 8.33372 16.667C8.22422 16.667 8.1158 16.6455 8.01465 16.6036C7.91349 16.5617 7.82157 16.5003 7.74415 16.4228L0.244397 8.92309C0.16692 8.8457 0.105456 8.75379 0.0635204 8.65263C0.0215848 8.55147 0 8.44303 0 8.33352C0 8.22401 0.0215848 8.11558 0.0635204 8.01442C0.105456 7.91326 0.16692 7.82135 0.244397 7.74396L7.74415 0.244205C7.90051 0.0878432 8.11259 -1.64754e-09 8.33372 0C8.55485 1.64754e-09 8.76692 0.0878432 8.92328 0.244205C9.07964 0.400567 9.16749 0.61264 9.16749 0.833769C9.16749 1.0549 9.07964 1.26697 8.92328 1.42333L2.84535 7.50022H19.1667C19.3877 7.50022 19.5997 7.58801 19.7559 7.74429C19.9122 7.90056 20 8.11252 20 8.33352Z" fill="black"/>
</svg>
