<svg width="18" height="18" viewBox="0 0 18 18" fill="none" xmlns="http://www.w3.org/2000/svg">
<path d="M14.9966 8.247H16.4962C16.4962 4.4005 13.5922 1.49951 9.74048 1.49951V2.99912C12.7862 2.99912 14.9966 5.20579 14.9966 8.247Z" fill="#0D0D0D"/>
<path d="M9.74801 5.9985C11.3248 5.9985 11.9974 6.67108 11.9974 8.24791H13.497C13.497 5.8298 12.1661 4.49889 9.74801 4.49889V5.9985ZM12.3138 10.0797C12.1698 9.94873 11.9804 9.87889 11.7858 9.88491C11.5912 9.89092 11.4066 9.97233 11.2709 10.1119L9.47658 11.9572C9.04469 11.8747 8.17642 11.604 7.28265 10.7125C6.38889 9.818 6.11821 8.94748 6.03798 8.51859L7.88174 6.72356C8.02152 6.58794 8.10304 6.40326 8.10906 6.2086C8.11507 6.01394 8.04512 5.82458 7.91399 5.68059L5.14346 2.63413C5.01228 2.48969 4.82995 2.40207 4.63521 2.38989C4.44046 2.37771 4.24864 2.44193 4.10048 2.5689L2.47341 3.96428C2.34378 4.09439 2.2664 4.26754 2.25597 4.45091C2.24472 4.63836 2.03027 9.0787 5.47337 12.5233C8.47709 15.5263 12.2396 15.746 13.2758 15.746C13.4273 15.746 13.5203 15.7415 13.545 15.74C13.7284 15.7297 13.9014 15.652 14.0309 15.5218L15.4255 13.8939C15.5526 13.7459 15.6169 13.5541 15.6049 13.3594C15.5929 13.1646 15.5054 12.9822 15.361 12.851L12.3138 10.0797Z" fill="#0D0D0D"/>
</svg>
