<svg width="18" height="18" viewBox="0 0 18 18" fill="none" xmlns="http://www.w3.org/2000/svg">
<path d="M8.9976 1.12012C7.35759 1.12205 5.78531 1.7744 4.62565 2.93406C3.46599 4.09372 2.81365 5.666 2.81171 7.306C2.80975 8.64621 3.24753 9.95006 4.05789 11.0175C4.05789 11.0175 4.22659 11.2397 4.25415 11.2717L8.9976 16.866L13.7433 11.2689C13.768 11.2391 13.9373 11.0175 13.9373 11.0175L13.9379 11.0158C14.7478 9.94884 15.1854 8.6456 15.1835 7.306C15.1815 5.666 14.5292 4.09372 13.3695 2.93406C12.2099 1.7744 10.6376 1.12205 8.9976 1.12012ZM8.9976 9.55541C8.5527 9.55541 8.1178 9.42349 7.74789 9.17632C7.37798 8.92915 7.08966 8.57784 6.91941 8.16681C6.74916 7.75579 6.70461 7.3035 6.79141 6.86716C6.8782 6.43082 7.09244 6.03001 7.40702 5.71543C7.72161 5.40084 8.12241 5.1866 8.55876 5.09981C8.9951 5.01302 9.44738 5.05756 9.85841 5.22781C10.2694 5.39807 10.6207 5.68638 10.8679 6.05629C11.1151 6.42621 11.247 6.86111 11.247 7.306C11.2463 7.90235 11.009 8.47407 10.5873 8.89575C10.1657 9.31744 9.59395 9.55467 8.9976 9.55541Z" fill="#0D0D0D"/>
</svg>
