<svg width="18" height="16" viewBox="0 0 18 16" fill="none" xmlns="http://www.w3.org/2000/svg">
<path fill-rule="evenodd" clip-rule="evenodd" d="M14.5413 3.14263C15.0289 3.14263 15.3486 3.31407 15.6684 3.68962C15.9882 4.06517 16.0441 4.604 15.9721 5.09303L15.2127 10.4487C15.0689 11.4782 14.2055 12.2366 13.1903 12.2366H4.46912C3.40595 12.2366 2.52663 11.4039 2.4387 10.327L1.70329 1.42735L0.496219 1.21509C0.176468 1.15794 -0.0473697 0.839537 0.00858664 0.512974C0.064543 0.178246 0.37632 -0.0421834 0.704065 0.0068011L2.61056 0.300709C2.88235 0.35051 3.08219 0.578288 3.10617 0.855867L3.25806 2.68462C3.28204 2.94669 3.48989 3.14263 3.74569 3.14263H14.5413ZM9.69705 7.38713H11.9113C12.2471 7.38713 12.5109 7.10955 12.5109 6.77483C12.5109 6.43193 12.2471 6.16252 11.9113 6.16252H9.69705C9.36131 6.16252 9.09752 6.43193 9.09752 6.77483C9.09752 7.10955 9.36131 7.38713 9.69705 7.38713Z" fill="#0D0D0D"/>
<path fill-rule="evenodd" clip-rule="evenodd" d="M2.29248 14.4775C2.29248 13.7917 2.83605 13.2366 3.50752 13.2366C4.17101 13.2366 4.71459 13.7917 4.71459 14.4775C4.71459 15.1551 4.17101 15.7103 3.50752 15.7103C2.83605 15.7103 2.29248 15.1551 2.29248 14.4775ZM11.2855 14.4775C11.2855 13.7917 11.829 13.2366 12.5005 13.2366C13.164 13.2366 13.7076 13.7917 13.7076 14.4775C13.7076 15.1551 13.164 15.7103 12.5005 15.7103C11.829 15.7103 11.2855 15.1551 11.2855 14.4775Z" fill="#7D7D7D"/>
<circle cx="15" cy="3" r="3" fill="#F30000"/>
</svg>
