<svg width="30" height="20" viewBox="0 0 30 20" fill="none" xmlns="http://www.w3.org/2000/svg">
<path d="M29.9352 9.44625C29.8927 9.34875 28.8527 7.0425 26.5302 4.72C24.3752 2.5675 20.6727 0 15.2502 0C9.82768 0 6.12518 2.5675 3.97018 4.72C1.64768 7.0425 0.607684 9.345 0.565184 9.44625C0.522449 9.54225 0.500366 9.64616 0.500366 9.75125C0.500366 9.85633 0.522449 9.96025 0.565184 10.0562C0.607684 10.1525 1.64768 12.4587 3.97018 14.7812C6.12518 16.9338 9.82768 19.5 15.2502 19.5C20.6727 19.5 24.3752 16.9338 26.5302 14.7812C28.8527 12.4587 29.8927 10.1562 29.9352 10.0562C29.9779 9.96025 30 9.85633 30 9.75125C30 9.64616 29.9779 9.54225 29.9352 9.44625ZM15.2502 18C11.3277 18 7.90268 16.5725 5.06893 13.7588C3.88103 12.5782 2.87581 11.2271 2.08643 9.75C2.87558 8.27316 3.88083 6.92243 5.06893 5.7425C7.90268 2.9275 11.3277 1.5 15.2502 1.5C19.1727 1.5 22.5977 2.9275 25.4314 5.7425C26.6195 6.92243 27.6248 8.27316 28.4139 9.75C27.6177 11.2762 23.6252 18 15.2502 18ZM15.2502 4C14.1129 4 13.0012 4.33723 12.0557 4.96905C11.1101 5.60087 10.3731 6.49889 9.93788 7.54957C9.50267 8.60025 9.3888 9.75638 9.61067 10.8718C9.83253 11.9872 10.3802 13.0117 11.1843 13.8159C11.9885 14.62 13.013 15.1677 14.1284 15.3895C15.2438 15.6114 16.3999 15.4975 17.4506 15.0623C18.5013 14.6271 19.3993 13.8901 20.0311 12.9445C20.663 11.9989 21.0002 10.8872 21.0002 9.75C20.9982 8.22561 20.3918 6.76423 19.3139 5.68633C18.236 4.60842 16.7746 4.00198 15.2502 4ZM15.2502 14C14.4096 14 13.5879 13.7507 12.889 13.2837C12.1901 12.8168 11.6454 12.153 11.3237 11.3764C11.002 10.5998 10.9179 9.74529 11.0818 8.92087C11.2458 8.09645 11.6506 7.33917 12.245 6.7448C12.8394 6.15042 13.5966 5.74565 14.4211 5.58166C15.2455 5.41768 16.1 5.50184 16.8766 5.82351C17.6532 6.14518 18.3169 6.68992 18.7839 7.38883C19.2509 8.08774 19.5002 8.90943 19.5002 9.75C19.5002 10.8772 19.0524 11.9582 18.2554 12.7552C17.4584 13.5522 16.3774 14 15.2502 14Z" fill="#A3A3A3"/>
</svg>
