<svg width="16" height="16" viewBox="0 0 16 16" fill="none" xmlns="http://www.w3.org/2000/svg">
<path d="M5.58738 15.0184V12.5727C5.58738 11.9479 6.1238 11.4415 6.7857 11.4415H9.20675C9.52422 11.4415 9.82905 11.5607 10.0539 11.7727C10.2787 11.9847 10.405 12.2727 10.405 12.5727V15.0184C10.4034 15.2784 10.5112 15.528 10.7048 15.712C10.8994 15.896 11.163 16 11.4383 16H13.0897C13.8611 16.0016 14.6013 15.7144 15.1469 15.2008C15.6935 14.6872 16 13.9896 16 13.2623V6.29342C16 5.70541 15.7238 5.1486 15.2463 4.77179L9.62862 0.540514C8.65178 -0.2011 7.25136 -0.1771 6.30315 0.597314L0.814325 4.77179C0.314114 5.1374 0.0151579 5.69661 0 6.29342V13.2551C0 14.7712 1.30273 16 2.91031 16H4.5238C5.09559 16 5.56042 15.5648 5.56463 15.0256L5.58738 15.0184Z" fill="#D7D7D7"/>
</svg>
