<svg width="26" height="25" viewBox="0 0 26 25" fill="none" xmlns="http://www.w3.org/2000/svg">
<g clip-path="url(#clip0_1_3673)">
<path d="M13.0111 6.13094C12.7912 6.13094 12.5738 6.14215 12.3595 6.1641C12.1453 6.18604 11.934 6.21856 11.7264 6.26125C11.5187 6.30393 11.3147 6.35679 11.1148 6.41918L10.528 6.63463L9.96941 6.90437L9.44226 7.22513L8.9497 7.59355L8.49519 8.00641L8.08193 8.46052L7.71311 8.95252L7.39195 9.47919L7.12205 10.0372C7.04091 10.228 6.96875 10.4237 6.90628 10.6234C6.84381 10.8232 6.79095 11.0271 6.74818 11.2345C6.70542 11.442 6.6729 11.653 6.65088 11.8671C6.62885 12.0812 6.6178 12.2984 6.6178 12.518C6.6178 12.7376 6.62901 12.9548 6.65088 13.1689C6.67262 13.3813 6.70509 13.5924 6.74818 13.8015C6.79095 14.0097 6.84381 14.2128 6.90628 14.4126C6.96875 14.6123 7.04083 14.8079 7.12205 14.9989L7.39195 15.5568L7.71311 16.0834L8.08193 16.5755L8.49519 17.0296L8.9497 17.4425L9.44226 17.8109L9.96941 18.1317L10.528 18.4014L11.1148 18.6168L11.7264 18.7748C11.9356 18.8178 12.147 18.8503 12.3595 18.872C12.576 18.8941 12.7935 18.9051 13.0111 18.9051C13.2309 18.9051 13.4484 18.8939 13.6625 18.872C13.8751 18.8503 14.0864 18.8178 14.2957 18.7748L14.9074 18.6168L15.4941 18.4014L16.0527 18.1317L16.5799 17.8109L17.0725 17.4425L17.527 17.0296L17.9403 16.5755L18.3091 16.0834L18.6303 15.5568L18.9002 14.9989L19.116 14.4126C19.1784 14.2128 19.2313 14.0089 19.2741 13.8015L19.3714 13.1688C19.3933 12.9547 19.4045 12.7375 19.4045 12.5179C19.4045 12.2983 19.3933 12.0811 19.3714 11.867C19.3496 11.6546 19.3171 11.4435 19.2741 11.2344C19.2313 11.0262 19.1784 10.8232 19.116 10.6234L18.9002 10.0371L18.6303 9.47911L18.3091 8.95244L17.9403 8.46044L17.527 8.00633L17.0725 7.59347L16.5799 7.22505L16.0527 6.90429L15.4941 6.63455L14.9074 6.4191L14.2957 6.26117L13.6625 6.16402C13.4461 6.14191 13.2287 6.13084 13.0111 6.13086V6.13094ZM13.0111 8.3355C13.1564 8.3355 13.2999 8.34271 13.4412 8.35697L13.8576 8.42L14.2599 8.52251L14.6452 8.66243L15.0114 8.83783L15.3558 9.04646L15.6778 9.28649L15.9746 9.55576L16.2441 9.85225L16.4844 10.1739L16.6932 10.5188L16.8686 10.8848C16.9213 11.01 16.9681 11.1384 17.0088 11.2697C17.0495 11.401 17.0837 11.5351 17.1113 11.6717C17.1389 11.8084 17.1594 11.9474 17.1743 12.0886L17.1958 12.5184C17.1958 12.6636 17.1886 12.8069 17.1743 12.9482C17.1601 13.0895 17.1391 13.2285 17.1113 13.3651C17.0835 13.5016 17.0492 13.6358 17.0088 13.7671L16.8686 14.1521L16.6932 14.5181L16.4844 14.8629L16.2441 15.1846L15.9746 15.4811L15.6778 15.7503L15.3558 15.9904L15.0114 16.199L14.6452 16.3744L14.2599 16.5143L13.8576 16.6168L13.4412 16.6798C13.2982 16.6941 13.1547 16.7013 13.011 16.7012C12.8673 16.7013 12.7237 16.6941 12.5808 16.6798L12.1643 16.6168C12.0276 16.5891 11.8933 16.5548 11.7619 16.5143L11.3767 16.3744L11.0104 16.199L10.666 15.9904L10.3441 15.7503L10.0473 15.4811L9.77776 15.1846L9.53749 14.8629L9.32861 14.5181L9.15321 14.1521L9.01306 13.7671L8.91054 13.3651L8.84751 12.9482C8.83318 12.8054 8.82601 12.6619 8.82605 12.5184C8.82601 12.3749 8.83318 12.2314 8.84751 12.0886C8.86169 11.9474 8.88275 11.8083 8.91054 11.6717C8.93805 11.5361 8.9723 11.402 9.01314 11.2698L9.15329 10.8849L9.32869 10.5188L9.53757 10.174L9.77784 9.85233L10.0473 9.55584L10.3442 9.28658L10.6661 9.04654L11.0105 8.83791L11.3768 8.66251C11.5028 8.60957 11.6314 8.56288 11.7621 8.52259L12.1644 8.42008C12.3012 8.39237 12.4404 8.37122 12.5809 8.35705C12.7239 8.34272 12.8675 8.33556 13.0112 8.33558L13.0111 8.3355Z" fill="url(#paint0_radial_1_3673)"/>
<path d="M19.6637 4.31396C19.6129 4.31398 19.5622 4.31654 19.5117 4.32165C19.4612 4.32676 19.4109 4.3344 19.3612 4.34456C19.3114 4.35471 19.2622 4.36735 19.2137 4.38244C19.1652 4.39754 19.1175 4.41508 19.0708 4.43498C19.024 4.45491 18.9783 4.47717 18.9337 4.5017C18.8892 4.52617 18.8459 4.55288 18.804 4.58171C18.7621 4.61057 18.7217 4.64152 18.6828 4.67445C18.644 4.70735 18.6069 4.74218 18.5715 4.77881C18.5361 4.81546 18.5026 4.85387 18.4711 4.8939C18.4395 4.93393 18.41 4.97552 18.3826 5.01852C18.3552 5.06148 18.3299 5.1058 18.3069 5.15131C18.2838 5.19685 18.2631 5.24352 18.2447 5.29115C18.2263 5.33877 18.2103 5.38728 18.1967 5.43651C18.1831 5.48574 18.172 5.53561 18.1634 5.58596C18.1547 5.63629 18.1486 5.68702 18.145 5.73797C18.1425 5.77406 18.1412 5.81023 18.1412 5.84641C18.1412 5.89752 18.1437 5.94861 18.1488 5.99946C18.1539 6.0503 18.1614 6.10084 18.1715 6.15091C18.1816 6.20098 18.1942 6.25052 18.2092 6.29932C18.2242 6.34814 18.2416 6.39618 18.2614 6.44324C18.2812 6.49033 18.3033 6.53638 18.3276 6.58124C18.352 6.62609 18.3785 6.66969 18.4072 6.71187C18.4358 6.75402 18.4666 6.7947 18.4993 6.83376C18.532 6.87286 18.5666 6.91028 18.603 6.94589C18.6394 6.98148 18.6776 7.01521 18.7173 7.04696C18.7571 7.07874 18.7984 7.10849 18.8412 7.1361C18.8839 7.16372 18.928 7.18917 18.9732 7.21235C19.0185 7.23554 19.0648 7.25645 19.1121 7.27498C19.1594 7.29349 19.2076 7.30961 19.2565 7.32328C19.3054 7.33692 19.355 7.34809 19.405 7.35675C19.455 7.36545 19.5054 7.37163 19.556 7.37525C19.5919 7.37782 19.6278 7.3791 19.6638 7.3791C19.7145 7.37911 19.7653 7.37657 19.8158 7.37149C19.8663 7.36638 19.9165 7.35874 19.9663 7.34858C20.016 7.33844 20.0652 7.3258 20.1137 7.3107C20.1622 7.2956 20.2099 7.27806 20.2567 7.25816C20.3034 7.23826 20.3492 7.21602 20.3937 7.19153C20.4383 7.16702 20.4816 7.14029 20.5235 7.11144C20.5654 7.0826 20.6058 7.05167 20.6446 7.01877C20.6834 6.98585 20.7206 6.95099 20.756 6.91433C20.7913 6.87768 20.8248 6.83927 20.8564 6.79925C20.8879 6.75922 20.9175 6.71762 20.9449 6.67462C20.9723 6.63163 20.9976 6.58729 21.0206 6.54175C21.0436 6.49622 21.0644 6.44955 21.0828 6.40192C21.1012 6.3543 21.1172 6.30578 21.1308 6.25655C21.1444 6.20733 21.1555 6.15745 21.1641 6.10711C21.1727 6.05677 21.1788 6.00604 21.1824 5.95509C21.185 5.919 21.1863 5.88283 21.1863 5.84665C21.1863 5.79556 21.1837 5.74451 21.1787 5.69368C21.1736 5.64285 21.166 5.5923 21.1559 5.54223C21.1458 5.49216 21.1333 5.44263 21.1183 5.39382C21.1033 5.345 21.0858 5.29697 21.0661 5.2499C21.0463 5.20282 21.0242 5.15676 20.9998 5.1119C20.9755 5.06705 20.949 5.02346 20.9203 4.98128C20.8916 4.9391 20.8608 4.89839 20.8281 4.8593C20.7955 4.82021 20.7609 4.78279 20.7245 4.74717C20.6881 4.71158 20.6499 4.67785 20.6101 4.6461C20.5703 4.61435 20.529 4.58463 20.4863 4.55704C20.4436 4.52942 20.3995 4.50397 20.3542 4.48079C20.309 4.4576 20.2627 4.4367 20.2153 4.41816C20.168 4.39965 20.1199 4.38353 20.0709 4.36987C20.022 4.3562 19.9725 4.345 19.9225 4.33631C19.8724 4.32764 19.822 4.32149 19.7714 4.31789C19.7356 4.31533 19.6996 4.31405 19.6637 4.31405V4.31396Z" fill="url(#paint1_radial_1_3673)"/>
<path d="M11.7987 0.0226939C11.1033 0.0215726 10.4828 0.0244554 9.92534 0.0323043L8.43086 0.0723494C7.98812 0.0915711 7.59696 0.116637 7.24584 0.149074C7.07029 0.165252 6.90466 0.183353 6.74768 0.203295C6.5983 0.222123 6.44933 0.244047 6.30086 0.269051C6.1595 0.293078 6.02535 0.319025 5.89672 0.347217C5.7681 0.375409 5.64524 0.405844 5.52671 0.438521C5.41083 0.470474 5.29586 0.505621 5.18192 0.543921C5.07027 0.581563 4.96135 0.621448 4.85379 0.664056C4.63867 0.749272 4.42883 0.844898 4.21275 0.952059C4.04648 1.03455 3.89287 1.11809 3.74694 1.20651C3.60102 1.29493 3.46278 1.38831 3.32743 1.49003C3.18804 1.59529 3.05368 1.70706 2.92482 1.82496C2.7901 1.94766 2.65251 2.08261 2.50955 2.23342C2.32991 2.42188 2.17381 2.59759 2.03525 2.77003C1.96598 2.85621 1.9011 2.94142 1.83999 3.02712C1.77956 3.11157 1.72179 3.1979 1.66676 3.28597C1.6123 3.37327 1.56072 3.46217 1.51138 3.55363C1.46128 3.64667 1.41392 3.74116 1.36938 3.83699C1.27824 4.03273 1.19318 4.24353 1.10829 4.47883C1.04531 4.65279 0.988911 4.82906 0.939219 5.00727C0.888522 5.18939 0.843431 5.37993 0.803225 5.586C0.76302 5.79207 0.727941 6.01368 0.697106 6.25876C0.663878 6.5274 0.637333 6.79683 0.617496 7.06679C0.595071 7.3636 0.57649 7.69021 0.561273 8.05374L0.525232 9.26246L0.50585 10.7359L0.500244 12.5168L0.516663 15.1067L0.56792 17.0689L0.607405 17.8354L0.65674 18.4705C0.672556 18.6417 0.692343 18.8125 0.716087 18.9828C0.737712 19.134 0.760938 19.2663 0.785926 19.3808C0.836629 19.6137 0.896584 19.8444 0.965648 20.0725C1.03178 20.2909 1.1074 20.5062 1.1923 20.718C1.27576 20.9254 1.36706 21.1255 1.46637 21.318C1.56568 21.5106 1.67301 21.6956 1.78834 21.8733C1.90367 22.051 2.027 22.2215 2.15867 22.3846C2.29019 22.5478 2.43008 22.704 2.57778 22.8527C2.72571 23.0016 2.88173 23.1434 3.04615 23.2781C3.21252 23.4143 3.38546 23.5424 3.56434 23.6617C3.73036 23.7727 3.89463 23.8744 4.0601 23.9677C4.22556 24.061 4.39247 24.1456 4.56402 24.2226C4.73558 24.2996 4.91145 24.3688 5.09518 24.4312C5.27891 24.4935 5.47032 24.5489 5.67263 24.5981C5.87494 24.6472 6.0891 24.6904 6.31576 24.728C6.54241 24.7657 6.78468 24.798 7.04354 24.8258C7.30239 24.8535 7.57854 24.8765 7.87527 24.8958C8.17201 24.915 8.48917 24.9304 8.82995 24.9427C9.35638 24.9618 10.1533 24.9729 11.0722 24.9771L14.0472 24.9711L16.8643 24.9316L17.9354 24.9015L18.6332 24.8656C18.783 24.8535 18.9296 24.8391 19.071 24.8222C19.2124 24.8053 19.352 24.786 19.4878 24.764C19.6236 24.7421 19.7564 24.7176 19.8869 24.6903C20.0158 24.6635 20.1441 24.6335 20.2716 24.6004C20.3979 24.5683 20.5223 24.5319 20.6455 24.4932C20.7687 24.4545 20.8906 24.4127 21.0118 24.3679C21.1336 24.3227 21.2544 24.2746 21.3739 24.2236C21.4943 24.1724 21.6145 24.1176 21.7351 24.0595C21.9204 23.9702 22.0695 23.8958 22.2005 23.8232C22.3236 23.7556 22.4422 23.6801 22.5556 23.597C22.6674 23.5147 22.7785 23.421 22.9067 23.3029C23.0348 23.1849 23.18 23.0426 23.3598 22.8627C23.5179 22.7048 23.6511 22.5675 23.7661 22.4427C23.881 22.3178 23.9778 22.2054 24.0627 22.0972C24.1436 21.9944 24.219 21.8874 24.2886 21.7766C24.3564 21.6685 24.4189 21.5562 24.4825 21.4317C24.5783 21.2443 24.6635 21.0707 24.7399 20.9033C24.814 20.7419 24.8817 20.5776 24.9428 20.4109C25.003 20.2454 25.0552 20.0772 25.0991 19.9067C25.1442 19.7313 25.1832 19.5461 25.2168 19.343C25.2505 19.1399 25.2789 18.9189 25.3035 18.672C25.3282 18.4252 25.3492 18.1524 25.3676 17.8459L25.4165 16.817L25.4584 15.5374L25.4884 14.1118L25.4999 12.6211L25.4732 9.69343L25.4374 8.38211L25.3885 7.2562L25.3277 6.37841C25.3055 6.13414 25.2817 5.94176 25.2564 5.8117C25.2284 5.66798 25.1971 5.52493 25.1625 5.38265C25.1289 5.24421 25.0919 5.1066 25.0516 4.96995C25.0123 4.83681 24.9696 4.7047 24.9236 4.57374C24.8781 4.44439 24.8299 4.31777 24.7794 4.19387C24.729 4.06997 24.6744 3.94896 24.6175 3.8305C24.5606 3.71205 24.501 3.59648 24.4385 3.48355C24.3759 3.37062 24.3108 3.2605 24.2426 3.1531C24.1744 3.0457 24.1035 2.94102 24.0296 2.83915C23.9561 2.7376 23.8794 2.63837 23.7997 2.54161C23.7204 2.44538 23.6381 2.35168 23.5529 2.26065C23.4678 2.16974 23.3798 2.08154 23.2891 1.9962C23.1984 1.91082 23.1049 1.82817 23.0085 1.74824C22.9117 1.66804 22.8124 1.59088 22.7109 1.51686C22.6082 1.44208 22.5033 1.37044 22.3963 1.30206C22.2878 1.23269 22.1773 1.16656 22.0649 1.10375C21.9505 1.03989 21.8343 0.979313 21.7165 0.922106C21.5209 0.827038 21.34 0.742705 21.1625 0.667901C20.988 0.593662 20.81 0.527726 20.6292 0.470317C20.4474 0.413053 20.2582 0.363958 20.0499 0.32159C19.8417 0.279222 19.6147 0.243903 19.3576 0.213869C19.1006 0.183835 18.8137 0.159568 18.4855 0.139385C18.1573 0.119203 17.7881 0.103344 17.3666 0.0905291L15.9341 0.0584935L14.1211 0.0371095L11.7995 0.0228527L11.7987 0.0226939ZM13.0044 2.22533L16.3524 2.2444L17.6154 2.26874C17.9633 2.27851 18.2287 2.28997 18.3843 2.30318C18.5869 2.32024 18.78 2.34163 18.9646 2.36725C19.1417 2.39172 19.318 2.42214 19.4932 2.45848C19.6614 2.49372 19.8218 2.53376 19.9753 2.57893C20.1288 2.6241 20.2755 2.67472 20.4162 2.7307C20.5569 2.78669 20.6915 2.84828 20.821 2.91571C20.9494 2.98264 21.0743 3.05629 21.195 3.13636C21.3151 3.21605 21.4309 3.30191 21.5434 3.39441C21.6558 3.48692 21.7648 3.58607 21.8713 3.69211C21.9836 3.80399 22.0873 3.91796 22.1828 4.03553C22.278 4.15238 22.3661 4.27484 22.4466 4.40227C22.528 4.53151 22.6013 4.66564 22.6662 4.80392C22.7325 4.94488 22.7921 5.09385 22.8456 5.25218C22.8991 5.41052 22.9467 5.57879 22.9889 5.75859C23.0331 5.94922 23.0702 6.14144 23.0999 6.33484C23.132 6.53988 23.1594 6.75852 23.1826 6.99263C23.2058 7.22673 23.225 7.47637 23.2409 7.74347C23.2536 7.95771 23.2646 8.24043 23.274 8.57433L23.2974 9.71281L23.3154 12.5016L23.295 15.2877L23.2705 16.4228L23.2367 17.2485C23.2134 17.6351 23.1887 17.9601 23.1592 18.243C23.1444 18.3844 23.1284 18.5153 23.1106 18.6381C23.094 18.7541 23.0742 18.8696 23.0514 18.9845C23.0306 19.0894 23.0064 19.1936 22.9789 19.2969C22.9526 19.3955 22.923 19.4932 22.8901 19.5898C22.857 19.6868 22.821 19.7829 22.7821 19.8778C22.741 19.978 22.6976 20.0772 22.6519 20.1755C22.6113 20.2632 22.5686 20.3485 22.5235 20.4315C22.4788 20.5137 22.4314 20.5944 22.3812 20.6734C22.3316 20.7516 22.2795 20.8277 22.225 20.9013C22.1709 20.9746 22.1141 21.046 22.0548 21.1153C21.9956 21.1842 21.934 21.251 21.87 21.3155C21.8059 21.38 21.7395 21.4422 21.6706 21.5023C21.6017 21.5623 21.5303 21.62 21.4563 21.6756C21.3824 21.7311 21.3059 21.7845 21.2269 21.8356C21.1478 21.8867 21.0663 21.9357 20.9821 21.9825C20.8979 22.0292 20.8111 22.0739 20.7218 22.1165C20.631 22.1596 20.5389 22.2001 20.4456 22.2377C20.3492 22.2766 20.2517 22.3128 20.1533 22.3462C19.953 22.4145 19.7418 22.4744 19.5195 22.526C19.2878 22.5796 19.0539 22.6233 18.8186 22.6572C18.7281 22.6705 18.5201 22.6829 18.2221 22.6944L17.0868 22.726L13.8679 22.7678L10.4989 22.773L9.17578 22.7589L8.31665 22.7322L7.68314 22.6877C7.48644 22.6711 7.30351 22.6527 7.13212 22.6318C6.96072 22.6109 6.8011 22.5876 6.65093 22.5613C6.50863 22.5367 6.36719 22.5073 6.22686 22.4732C6.0989 22.4421 5.97225 22.4058 5.84723 22.3644C5.72669 22.3244 5.61144 22.2803 5.49932 22.2319C5.38719 22.1834 5.27827 22.1303 5.17039 22.0723C5.0625 22.0143 4.95574 21.9514 4.84778 21.8828C4.76633 21.831 4.6876 21.7786 4.61184 21.7231C4.53607 21.6676 4.46287 21.6123 4.39239 21.5543C4.32191 21.4963 4.25423 21.4366 4.18896 21.3751C4.12412 21.3139 4.0615 21.2503 4.00123 21.1846C3.94116 21.1191 3.88374 21.0517 3.82863 20.9818C3.77332 20.9117 3.72061 20.8396 3.67062 20.7656C3.61988 20.6905 3.57188 20.6135 3.52669 20.5349C3.48104 20.4556 3.43763 20.3736 3.39639 20.289C3.35445 20.2029 3.31532 20.1153 3.27905 20.0266C3.24221 19.9362 3.20729 19.843 3.17446 19.7468C3.10878 19.5541 3.05112 19.3491 3.00098 19.1305C2.95085 18.9118 2.90808 18.6796 2.87188 18.4321C2.83568 18.1846 2.80652 17.9222 2.7833 17.6433C2.76616 17.4379 2.75254 17.118 2.74213 16.7143L2.72035 15.2787L2.72835 11.619L2.79139 8.1219L2.83944 6.88979L2.86667 6.48253C2.87612 6.37377 2.88589 6.2932 2.8959 6.24482C2.9289 6.08568 2.96214 5.9376 2.9965 5.79896C3.02859 5.66817 3.0643 5.5383 3.10358 5.40948C3.1409 5.2879 3.18022 5.17402 3.22227 5.06613C3.26282 4.96163 3.30801 4.85898 3.3577 4.75851C3.40624 4.6608 3.45838 4.56725 3.515 4.47619C3.57162 4.38513 3.63273 4.29679 3.69937 4.20893C3.766 4.12107 3.83776 4.03433 3.91585 3.94639C3.99394 3.85845 4.07828 3.76963 4.16974 3.67809C4.27633 3.57089 4.38733 3.46815 4.50243 3.37014C4.61112 3.27768 4.72446 3.19083 4.84202 3.10993C4.95759 3.02984 5.07612 2.95856 5.19954 2.89305C5.32296 2.82753 5.45126 2.76835 5.58621 2.71509C5.72117 2.66183 5.86293 2.61417 6.01309 2.57092C6.17086 2.52667 6.33037 2.48892 6.49123 2.45776C6.66038 2.4246 6.84003 2.39569 7.03184 2.37046C7.22366 2.34523 7.42773 2.32344 7.64589 2.30454C7.79807 2.29141 8.06028 2.27972 8.40555 2.26986L9.66217 2.24504L13.005 2.22461L13.0044 2.22533Z" fill="url(#paint2_radial_1_3673)"/>
</g>
<defs>
<radialGradient id="paint0_radial_1_3673" cx="0" cy="0" r="1" gradientUnits="userSpaceOnUse" gradientTransform="translate(4.48315 26.7963) rotate(-9.53101) scale(52.8364 32.0714)">
<stop stop-color="#FED576"/>
<stop offset="0.263" stop-color="#F47133"/>
<stop offset="0.609" stop-color="#BC3081"/>
<stop offset="1" stop-color="#4C63D2"/>
</radialGradient>
<radialGradient id="paint1_radial_1_3673" cx="0" cy="0" r="1" gradientUnits="userSpaceOnUse" gradientTransform="translate(4.48315 26.7963) rotate(-9.53101) scale(52.8364 32.0714)">
<stop stop-color="#FED576"/>
<stop offset="0.263" stop-color="#F47133"/>
<stop offset="0.609" stop-color="#BC3081"/>
<stop offset="1" stop-color="#4C63D2"/>
</radialGradient>
<radialGradient id="paint2_radial_1_3673" cx="0" cy="0" r="1" gradientUnits="userSpaceOnUse" gradientTransform="translate(4.48313 26.7962) rotate(-9.53101) scale(52.8364 32.0714)">
<stop stop-color="#FED576"/>
<stop offset="0.263" stop-color="#F47133"/>
<stop offset="0.609" stop-color="#BC3081"/>
<stop offset="1" stop-color="#4C63D2"/>
</radialGradient>
<clipPath id="clip0_1_3673">
<rect width="25" height="25" fill="white" transform="translate(0.5)"/>
</clipPath>
</defs>
</svg>
