<svg width="12" height="16" viewBox="0 0 12 16" fill="none" xmlns="http://www.w3.org/2000/svg">
<path d="M6 3.6365C5.4606 3.6365 4.93331 3.79645 4.48481 4.09613C4.03631 4.3958 3.68675 4.82174 3.48033 5.32009C3.27391 5.81843 3.2199 6.36679 3.32513 6.89583C3.43036 7.42487 3.69011 7.91083 4.07153 8.29224C4.45294 8.67366 4.9389 8.93341 5.46794 9.03864C5.99697 9.14387 6.54534 9.08986 7.04368 8.88344C7.54203 8.67702 7.96797 8.32746 8.26764 7.87896C8.56732 7.43046 8.72727 6.90317 8.72727 6.36377C8.72727 5.64045 8.43994 4.94676 7.92847 4.4353C7.41701 3.92383 6.72332 3.6365 6 3.6365ZM6 8.00013C5.67636 8.00013 5.35998 7.90416 5.09089 7.72436C4.82179 7.54455 4.61205 7.28898 4.4882 6.98998C4.36434 6.69097 4.33194 6.36195 4.39508 6.04453C4.45822 5.72711 4.61407 5.43553 4.84292 5.20669C5.07177 4.97784 5.36334 4.82199 5.68076 4.75885C5.99818 4.69571 6.3272 4.72811 6.62621 4.85197C6.92522 4.97582 7.18078 5.18556 7.36059 5.45465C7.54039 5.72375 7.63636 6.04013 7.63636 6.36377C7.63636 6.79776 7.46396 7.21398 7.15708 7.52085C6.85021 7.82773 6.43399 8.00013 6 8.00013ZM6 0.36377C4.40925 0.365574 2.88418 0.998295 1.75935 2.12312C0.634525 3.24795 0.00180459 4.77302 0 6.36377C0 8.50468 0.989318 10.7738 2.86364 12.9263C3.70583 13.8989 4.65372 14.7748 5.68977 15.5376C5.78149 15.6019 5.89075 15.6363 6.00273 15.6363C6.1147 15.6363 6.22397 15.6019 6.31568 15.5376C7.34983 14.7745 8.29587 13.8986 9.13636 12.9263C11.008 10.7738 12 8.50468 12 6.36377C11.9982 4.77302 11.3655 3.24795 10.2406 2.12312C9.11582 0.998295 7.59075 0.365574 6 0.36377ZM6 14.4092C4.87295 13.5229 1.09091 10.2672 1.09091 6.36377C1.09091 5.0618 1.60812 3.81315 2.52875 2.89252C3.44938 1.97188 4.69803 1.45468 6 1.45468C7.30197 1.45468 8.55062 1.97188 9.47125 2.89252C10.3919 3.81315 10.9091 5.0618 10.9091 6.36377C10.9091 10.2658 7.12705 13.5229 6 14.4092Z" fill="black"/>
</svg>
