<svg width="14" height="16" viewBox="0 0 14 16" fill="none" xmlns="http://www.w3.org/2000/svg">
<path d="M13.3984 7.71612C12.7968 7.03373 12.5235 6.44238 12.5235 5.43764V5.09602C12.5235 3.78677 12.2133 2.94321 11.5389 2.09964C10.4994 0.78958 8.7495 0 7.0364 0H6.9636C5.28657 0 3.59149 0.753324 2.534 2.01021C1.82272 2.87069 1.47651 3.75052 1.47651 5.09602V5.43764C1.47651 6.44238 1.22113 7.03373 0.601588 7.71612C0.145682 8.21891 0 8.86506 0 9.56441C0 10.2646 0.236518 10.9277 0.711283 11.4667C1.33082 12.1129 2.20582 12.5253 3.0996 12.5971C4.39353 12.7404 5.68754 12.7944 7.00041 12.7944C8.31246 12.7944 9.60647 12.7042 10.9012 12.5971C11.7942 12.5253 12.6692 12.1129 13.2887 11.4667C13.7627 10.9277 14 10.2646 14 9.56441C14 8.86506 13.8543 8.21891 13.3984 7.71612Z" fill="#0D0D0D"/>
<path d="M8.65446 13.7827C8.24269 13.6973 5.73414 13.6973 5.32238 13.7827C4.97048 13.8617 4.58984 14.0453 4.58984 14.4481C4.61035 14.8325 4.84201 15.1717 5.16277 15.3868L5.16203 15.3876C5.57693 15.7018 6.06396 15.9016 6.57389 15.9734C6.84558 16.0096 7.1222 16.008 7.40376 15.9734C7.91287 15.9016 8.3999 15.7018 8.81488 15.3876L8.81406 15.3868C9.1349 15.1717 9.36648 14.8325 9.38699 14.4481C9.38699 14.0453 9.00635 13.8617 8.65446 13.7827Z" fill="#7D7D7D"/>
</svg>
